<svg width="40" height="40" viewBox="0 0 40 40" fill="none" xmlns="http://www.w3.org/2000/svg">
<path d="M20 38.3333C20.884 38.3333 21.7319 37.9822 22.357 37.357C22.9821 36.7319 23.3333 35.8841 23.3333 35H16.6666C16.6666 35.8841 17.0178 36.7319 17.6429 37.357C18.2681 37.9822 19.1159 38.3333 20 38.3333Z" fill="white"/>
<path d="M34.8733 30.6377C34.9995 30.3331 35.0325 29.9979 34.9681 29.6745C34.9037 29.3511 34.7449 29.0541 34.5117 28.821L31.6667 25.976V16.666C31.6634 13.8629 30.651 11.1547 28.8147 9.03689C26.9784 6.91904 24.441 5.53312 21.6667 5.13268V3.33268C21.6667 2.89065 21.4911 2.46673 21.1785 2.15417C20.866 1.84161 20.442 1.66602 20 1.66602C19.558 1.66602 19.1341 1.84161 18.8215 2.15417C18.5089 2.46673 18.3333 2.89065 18.3333 3.33268V5.13268C15.559 5.53312 13.0216 6.91904 11.1853 9.03689C9.34902 11.1547 8.33663 13.8629 8.33334 16.666V25.976L5.48834 28.821C5.25533 29.0541 5.09665 29.351 5.03237 29.6743C4.96809 29.9976 5.0011 30.3326 5.12721 30.6371C5.25333 30.9416 5.4669 31.2019 5.74091 31.385C6.01493 31.5682 6.33709 31.6659 6.66668 31.666H33.3333C33.663 31.6661 33.9852 31.5684 34.2593 31.3854C34.5334 31.2024 34.7471 30.9422 34.8733 30.6377ZM10.69 28.3327L11.1783 27.8444C11.4909 27.5319 11.6666 27.108 11.6667 26.666V16.666C11.6667 14.4559 12.5447 12.3363 14.1075 10.7735C15.6703 9.21066 17.7899 8.33268 20 8.33268C22.2101 8.33268 24.3298 9.21066 25.8926 10.7735C27.4554 12.3363 28.3333 14.4559 28.3333 16.666V26.666C28.3334 27.108 28.5091 27.5319 28.8217 27.8444L29.31 28.3327H10.69Z" fill="white"/>
</svg>
